<?xml version="1.0" encoding="UTF-8" standalone="no"?>
<svg width="536px" height="126px" viewBox="0 0 536 126" version="1.1" xmlns="http://www.w3.org/2000/svg" xmlns:xlink="http://www.w3.org/1999/xlink" xmlns:sketch="http://www.bohemiancoding.com/sketch/ns">
    <!-- Generator: Sketch 3.3.3 (12072) - http://www.bohemiancoding.com/sketch -->
    <title>logo-outline</title>
    <desc>Created with Sketch.</desc>
    <defs></defs>
    <g id="Page-1" stroke="none" stroke-width="1" fill="none" fill-rule="evenodd" sketch:type="MSPage">
        <g id="logo-outline" sketch:type="MSLayerGroup">
            <g id="Group-Copy-13" transform="translate(146.000000, 13.000000)"></g>
            <g id="old-logo-image-new-colors" sketch:type="MSShapeGroup">
                <path d="M58.275,13.346 C58.384,13.72 58.288,14.263 58.082,14.605 C54.225,20.97 51.031,27.652 48.42,34.618 C46.441,30.974 44.734,26.962 42.829,23.044 C41.493,20.298 39.875,17.691 38.415,15.005 C38.199,14.607 37.991,14.075 38.072,13.663 C38.978,9.06 40.069,4.495 42.325,0.342 L0.894,0.342 L0.894,18.281 C3.783,19.235 6.48,20.674 9.098,22.27 C20.578,29.27 30.063,38.46 38.211,49.09 C36.638,50.353 34.845,51.237 33.182,52.32 C30.13,54.307 27.643,56.895 25.73,59.994 C25.264,60.75 24.784,60.932 23.958,60.806 C22.264,60.547 20.56,60.313 18.852,60.205 C17.841,60.141 17.108,59.728 16.388,59.08 C10.69,53.958 5.425,48.476 0.893,42.393 L0.893,47.41 C4.311,51.605 8.014,55.546 11.993,59.242 C12.1,59.34 12.169,59.479 12.315,59.683 C11.36,59.683 10.524,59.687 9.688,59.683 C6.751,59.67 3.818,59.729 0.893,59.891 L0.893,62.963 C7.655,62.543 14.429,62.743 21.21,63.516 C22.095,63.616 22.976,63.766 24.019,63.917 C21.682,69.51 21.158,75.099 22.484,80.861 C22.557,81.176 22.287,81.711 22.01,81.943 C20.41,83.274 18.77,84.559 17.116,85.824 C16.813,86.057 16.399,86.247 16.025,86.269 C10.956,86.57 5.907,86.643 0.893,86.364 L0.893,89.428 C4.681,89.64 8.479,89.665 12.287,89.524 C12.391,89.522 12.496,89.572 12.815,89.648 C10.925,91.518 9.028,93.19 7.377,95.078 C5.171,97.598 3.04,100.185 0.894,102.759 L0.894,107.525 C2.519,105.317 4.248,103.179 6.05,101.094 C11.135,95.206 16.753,89.878 22.93,85.145 C23.243,84.905 23.573,84.684 23.981,84.395 C26.948,91.561 31.972,96.587 39.243,99.596 C37.479,101.745 35.861,103.832 34.122,105.814 C27.58,113.272 20.389,119.976 12.071,125.336 L17.571,125.336 C26.84,118.482 34.915,110.433 41.797,101.185 C42.237,100.592 42.618,100.495 43.317,100.61 C45.357,100.945 47.415,101.165 49.654,101.452 C48.798,104.216 48.01,107.037 47.053,109.799 C45.199,115.145 43.066,120.355 40.505,125.336 L43.904,125.336 C45.837,121.44 47.559,117.441 49.094,113.353 C50.915,117.394 52.602,121.369 54.488,125.247 C54.503,125.277 57.958,125.337 57.958,125.337 C56.417,122.348 55.011,119.277 53.709,116.149 C52.755,113.858 51.914,111.518 51.092,109.173 C50.918,108.68 50.939,108.05 51.069,107.533 C51.548,105.637 52.177,103.778 52.613,101.874 C52.825,100.942 53.21,100.617 54.155,100.385 C55.456,100.066 56.135,100.359 56.951,101.437 C63.738,110.416 71.684,118.234 80.762,124.902 C80.914,125.013 81.055,125.169 81.186,125.337 L86.889,125.337 C83.933,123.482 81.132,121.371 78.397,119.164 C71.251,113.398 64.895,106.849 59.334,99.536 C59.188,99.342 59.064,99.131 58.888,98.866 C62.561,97.385 65.821,95.322 68.466,92.407 C69.666,91.082 70.735,89.629 71.764,88.165 C72.158,87.604 72.517,87.438 73.16,87.524 C75.181,87.794 77.211,88.001 79.233,88.266 C79.571,88.31 79.954,88.448 80.206,88.669 C89.492,96.842 97.695,105.911 103.408,117.003 C104.762,119.632 105.859,122.372 106.205,125.337 L118.141,125.337 L118.141,106.977 C116.82,107.341 115.444,107.478 114.066,107.559 C109.674,107.817 105.355,107.158 101.063,106.314 C100.711,106.244 100.322,105.959 100.104,105.66 C95.709,99.638 90.746,94.125 85.289,89.049 C85.237,89.001 85.216,88.919 85.099,88.702 C85.943,88.702 86.668,88.7 87.392,88.704 C94.015,88.742 100.609,88.403 107.157,87.347 C107.638,87.269 108.267,87.313 108.654,87.567 C112.073,89.807 115.377,92.208 118.142,95.205 L118.142,81.495 C113.271,83.241 108.2,84.191 103.058,84.813 C93.976,85.913 84.891,85.883 75.807,84.809 C75.044,84.719 74.286,84.594 73.357,84.458 C76.309,77.231 76.304,70.159 73.346,62.95 C74.927,62.756 76.412,62.533 77.905,62.395 C91.06,61.186 104.091,61.652 116.84,65.494 C117.277,65.626 117.712,65.765 118.144,65.91 L118.144,51.873 C114.983,54.681 111.727,57.203 108.517,59.773 C108.215,60.015 107.674,60.126 107.28,60.065 C99.916,58.901 92.506,58.622 85.067,58.82 C84.963,58.824 84.857,58.766 84.377,58.634 C86.703,56.393 88.995,54.427 90.995,52.199 C93.799,49.074 96.424,45.788 99.038,42.501 C99.693,41.677 100.351,41.2 101.392,41.017 C106.229,40.169 111.075,39.454 115.983,40.213 C116.708,40.325 117.435,40.498 118.145,40.72 L118.145,0.342 L54.074,0.342 C54.302,0.781 54.516,1.228 54.692,1.685 C56.155,5.468 57.138,9.439 58.275,13.346 Z M46.347,40.609 C45.797,42.698 45.169,44.768 44.647,46.863 C44.482,47.525 44.226,47.852 43.538,47.879 C43.135,47.895 42.71,47.962 42.343,48.12 C41.671,48.41 41.329,48.124 40.94,47.599 C35.785,40.651 29.873,34.408 23.288,28.807 C21.114,26.959 18.796,25.279 16.589,23.465 C16.164,23.115 15.763,22.532 15.679,22.006 C15.112,18.427 14.636,14.835 14.107,11.089 C14.53,8.76 14.753,6.303 15.452,3.99 C16.438,0.732 18.685,-0.081 21.765,1.416 C25.348,3.16 27.992,6.013 30.411,9.054 C37.658,18.161 42.606,28.492 46.341,39.449 C46.459,39.799 46.442,40.247 46.347,40.609 L46.347,40.609 Z M98.932,16.792 C99.882,16.61 100.882,16.555 101.846,16.625 C104.319,16.809 105.71,18.078 105.575,20.551 C105.453,22.752 105.011,25.015 104.26,27.086 C101.954,33.451 98.082,38.919 93.9,44.167 C89.77,49.351 85.182,54.106 80.191,58.465 C79.762,58.84 79.158,59.133 78.599,59.219 C76.504,59.54 74.397,59.794 72.286,59.991 C71.908,60.025 71.32,59.78 71.122,59.474 C68.039,54.701 63.905,51.205 58.66,49.02 C58.554,48.974 58.463,48.895 58.068,48.637 C60.967,45.303 63.675,41.98 66.6,38.864 C72.938,32.11 79.935,26.124 87.928,21.378 C91.372,19.333 94.95,17.553 98.932,16.792 L98.932,16.792 Z M74.719,1.044 C77.774,-0.436 79.936,0.424 81.087,3.617 C82.159,6.592 82.287,9.706 82.022,12.805 C81.776,15.684 81.318,18.55 80.855,21.405 C80.765,21.963 80.335,22.599 79.871,22.944 C70.601,29.832 62.493,37.878 55.563,47.12 C55.306,47.463 54.718,47.796 54.322,47.758 C52.18,47.545 50.049,47.214 47.795,46.908 C49.568,39.928 52.03,33.212 55.098,26.713 C58.401,19.719 62.227,13.047 67.339,7.188 C69.468,4.75 71.756,2.48 74.719,1.044 L74.719,1.044 Z" id="Shape" fill="#91B6C9"></path>
                <path d="M34.121,105.812 C35.86,103.831 37.478,101.743 39.242,99.594 C31.971,96.585 26.947,91.559 23.98,84.393 C23.572,84.683 23.243,84.904 22.929,85.143 C16.752,89.876 11.135,95.204 6.049,101.092 C4.247,103.177 2.518,105.315 0.893,107.523 L0.893,125.333 L12.07,125.333 C20.388,119.974 27.58,113.27 34.121,105.812 L34.121,105.812 Z" id="Shape" fill="#FFFFFF"></path>
                <path d="M77.901,62.391 C76.408,62.529 74.923,62.752 73.342,62.946 C76.3,70.155 76.305,77.227 73.353,84.454 C74.282,84.59 75.04,84.715 75.803,84.805 C84.887,85.879 93.973,85.909 103.054,84.809 C108.196,84.186 113.267,83.237 118.138,81.491 L118.138,65.906 C117.706,65.761 117.271,65.622 116.834,65.49 C104.087,61.648 91.057,61.182 77.901,62.391 L77.901,62.391 Z" id="Shape" fill="#FFFFFF"></path>
                <path d="M16.389,59.081 C17.109,59.729 17.842,60.143 18.853,60.206 C20.561,60.314 22.265,60.547 23.959,60.807 C24.785,60.932 25.265,60.751 25.731,59.995 C27.644,56.896 30.13,54.308 33.183,52.321 C34.846,51.238 36.639,50.354 38.38,49.376 C38.336,49.3 38.285,49.187 38.212,49.091 C30.064,38.462 20.579,29.271 9.099,22.271 C6.481,20.675 3.784,19.236 0.895,18.282 L0.895,42.394 C5.426,48.477 10.691,53.958 16.389,59.081 L16.389,59.081 Z" id="Shape" fill="#FFFFFF"></path>
                <path d="M16.025,86.27 C16.399,86.248 16.813,86.058 17.116,85.825 C18.769,84.56 20.409,83.275 22.01,81.944 C22.287,81.713 22.557,81.178 22.484,80.862 C21.158,75.1 21.682,69.51 24.019,63.918 C22.976,63.766 22.095,63.617 21.21,63.517 C14.429,62.744 7.655,62.544 0.893,62.964 L0.893,86.365 C5.908,86.644 10.956,86.571 16.025,86.27 L16.025,86.27 Z" id="Shape" fill="#FFFFFF"></path>
                <path d="M80.204,88.666 C79.953,88.444 79.569,88.307 79.231,88.263 C77.209,87.998 75.179,87.79 73.158,87.521 C72.516,87.435 72.157,87.601 71.762,88.162 C70.732,89.626 69.664,91.079 68.464,92.404 C65.819,95.319 62.56,97.382 58.886,98.863 C59.062,99.128 59.185,99.34 59.332,99.533 C64.892,106.846 71.249,113.395 78.395,119.161 C81.13,121.369 83.931,123.479 86.887,125.334 L106.204,125.334 C105.858,122.369 104.76,119.629 103.407,117 C97.693,105.908 89.49,96.839 80.204,88.666 L80.204,88.666 Z" id="Shape" fill="#FFFFFF"></path>
                <path d="M66.6,38.866 C63.675,41.983 60.967,45.305 58.068,48.639 C58.463,48.896 58.554,48.976 58.66,49.022 C63.905,51.207 68.039,54.703 71.122,59.476 C71.32,59.782 71.907,60.027 72.286,59.993 C74.397,59.795 76.504,59.542 78.599,59.221 C79.159,59.135 79.763,58.842 80.191,58.467 C85.182,54.108 89.77,49.352 93.9,44.169 C98.082,38.921 101.954,33.454 104.26,27.088 C105.011,25.017 105.453,22.754 105.575,20.553 C105.71,18.08 104.32,16.811 101.846,16.627 C100.882,16.556 99.882,16.612 98.932,16.794 C94.95,17.554 91.372,19.335 87.928,21.381 C79.935,26.125 72.938,32.111 66.6,38.866 L66.6,38.866 Z" id="Shape" fill="#FFFFFF"></path>
                <path d="M47.794,46.909 C50.048,47.214 52.179,47.545 54.321,47.759 C54.717,47.797 55.305,47.464 55.562,47.121 C62.492,37.878 70.6,29.833 79.87,22.945 C80.334,22.601 80.764,21.964 80.854,21.406 C81.318,18.551 81.776,15.685 82.021,12.806 C82.286,9.706 82.158,6.593 81.086,3.618 C79.935,0.425 77.773,-0.436 74.718,1.045 C71.755,2.481 69.467,4.752 67.338,7.19 C62.226,13.049 58.4,19.721 55.097,26.715 C52.03,33.213 49.567,39.929 47.794,46.909 L47.794,46.909 Z" id="Shape" fill="#FFFFFF"></path>
                <path d="M49.652,101.45 C47.413,101.162 45.355,100.943 43.315,100.608 C42.617,100.492 42.235,100.59 41.795,101.183 C34.913,110.432 26.838,118.481 17.569,125.334 L40.503,125.334 C43.064,120.353 45.197,115.143 47.051,109.797 C48.009,107.035 48.796,104.214 49.652,101.45 L49.652,101.45 Z" id="Shape" fill="#FFFFFF"></path>
                <path d="M30.411,9.054 C27.992,6.013 25.349,3.159 21.765,1.416 C18.686,-0.082 16.438,0.731 15.452,3.99 C14.754,6.303 14.53,8.76 14.107,11.089 C14.636,14.835 15.112,18.428 15.679,22.006 C15.763,22.533 16.164,23.115 16.589,23.465 C18.796,25.279 21.113,26.96 23.288,28.807 C29.872,34.408 35.785,40.651 40.94,47.599 C41.329,48.124 41.67,48.41 42.343,48.12 C42.71,47.962 43.135,47.894 43.538,47.879 C44.226,47.853 44.482,47.525 44.647,46.863 C45.168,44.768 45.797,42.698 46.347,40.609 C46.443,40.246 46.46,39.799 46.341,39.448 C42.605,28.492 37.657,18.161 30.411,9.054 L30.411,9.054 Z" id="Shape" fill="#FFFFFF"></path>
                <path d="M80.76,124.899 C71.683,118.231 63.737,110.413 56.949,101.434 C56.133,100.356 55.453,100.063 54.153,100.382 C53.208,100.614 52.824,100.939 52.611,101.871 C52.175,103.774 51.546,105.634 51.067,107.53 C50.937,108.047 50.916,108.677 51.09,109.17 C51.912,111.515 52.753,113.855 53.707,116.146 C55.009,119.274 56.415,122.345 57.956,125.334 L81.184,125.334 C81.053,125.166 80.912,125.011 80.76,124.899 L80.76,124.899 Z" id="Shape" fill="#FFFFFF"></path>
                <path d="M101.387,41.017 C100.345,41.201 99.688,41.678 99.033,42.501 C96.418,45.788 93.793,49.074 90.99,52.199 C88.99,54.428 86.698,56.393 84.372,58.634 C84.852,58.765 84.958,58.823 85.062,58.82 C92.501,58.622 99.912,58.902 107.275,60.065 C107.669,60.127 108.21,60.015 108.512,59.773 C111.722,57.203 114.979,54.681 118.054,51.957 C118.084,51.93 118.109,51.899 118.139,51.873 L118.139,40.719 C117.429,40.497 116.701,40.324 115.977,40.212 C111.069,39.454 106.224,40.168 101.387,41.017 L101.387,41.017 Z" id="Shape" fill="#FFFFFF"></path>
                <path d="M49.092,113.351 C47.557,117.439 45.835,121.438 43.902,125.334 L54.531,125.334 C54.516,125.304 54.5,125.274 54.485,125.244 C52.6,121.366 50.913,117.391 49.092,113.351 L49.092,113.351 Z" id="Shape" fill="#FFFFFF"></path>
                <path d="M38.414,15.005 C39.874,17.692 41.492,20.298 42.828,23.044 C44.733,26.961 46.44,30.974 48.224,34.929 C48.256,34.879 48.367,34.76 48.419,34.618 C51.03,27.652 54.224,20.97 58.081,14.605 C58.288,14.264 58.383,13.72 58.274,13.346 C57.138,9.439 56.155,5.468 54.691,1.685 C54.514,1.228 54.301,0.782 54.067,0.342 L42.322,0.342 C40.066,4.494 38.975,9.06 38.069,13.663 C37.99,14.075 38.198,14.606 38.414,15.005 L38.414,15.005 Z" id="Shape" fill="#FFFFFF"></path>
                <path d="M108.652,87.563 C108.266,87.31 107.636,87.266 107.155,87.343 C100.607,88.399 94.012,88.738 87.39,88.7 C86.666,88.696 85.94,88.698 85.097,88.698 C85.215,88.915 85.236,88.997 85.287,89.045 C90.745,94.121 95.708,99.634 100.102,105.656 C100.32,105.955 100.709,106.24 101.061,106.31 C105.353,107.154 109.672,107.813 114.064,107.555 C115.442,107.474 116.818,107.338 118.139,106.973 L118.139,95.2 C115.375,92.204 112.071,89.802 108.652,87.563 L108.652,87.563 Z" id="Shape" fill="#FFFFFF"></path>
                <path d="M12.316,59.683 C12.17,59.479 12.101,59.34 11.994,59.242 C8.015,55.547 4.312,51.606 0.894,47.41 L0.894,59.891 C3.819,59.728 6.752,59.67 9.689,59.683 C10.525,59.687 11.361,59.683 12.316,59.683 L12.316,59.683 Z" id="Shape" fill="#FFFFFF"></path>
                <path d="M12.815,89.647 C12.497,89.571 12.391,89.522 12.287,89.523 C8.48,89.665 4.682,89.64 0.893,89.427 L0.893,102.757 C3.039,100.183 5.17,97.596 7.376,95.076 C9.028,93.189 10.925,91.517 12.815,89.647 L12.815,89.647 Z" id="Shape" fill="#FFFFFF"></path>
                <circle id="Oval-Copy-2" stroke="#91B6C9" stroke-width="3" fill="#F3C859" cx="48.576" cy="74.284" r="24.324"></circle>
            </g>
            <path d="M148.24,43.23 C148.24,56.91 158.23,67.08 172.54,67.08 C184.6,67.08 191.08,59.25 191.08,59.25 L187.3,53.04 C187.3,53.04 181.72,59.34 173.17,59.34 C164.71,59.34 157.15,53.49 157.15,43.14 C157.15,33.51 163.81,26.85 172.72,26.85 C176.05,26.85 181.18,28.29 181.18,31.53 L181.18,34.05 L189.1,34.05 L189.1,29.37 C189.1,21.63 178.21,19.38 172.72,19.38 C158.05,19.38 148.24,29.82 148.24,43.23 L148.24,43.23 Z M196.3,53.22 C196.3,62.31 203.95,67.08 211.78,67.08 C222.67,67.08 226.27,58.08 226.27,58.08 L226.45,58.08 C226.45,58.08 226.27,59.25 226.27,60.78 C226.27,64.02 227.89,66 231.94,66 L240.13,66 L240.13,58.53 L236.44,58.53 C235.18,58.53 234.46,57.9 234.46,56.55 L234.46,37.2 C234.46,27.12 230.5,19.38 215.74,19.38 C211.33,19.38 199.99,20.46 199.99,27.93 L199.99,32.43 L208.18,32.43 L208.18,29.82 C208.18,26.85 213.49,26.31 215.65,26.31 C222.76,26.31 225.73,29.19 225.73,37.2 L225.73,37.65 L223.75,37.65 C216.1,37.65 196.3,38.55 196.3,53.22 L196.3,53.22 Z M205.12,52.77 C205.12,44.4 217,44.04 223.57,44.04 L225.82,44.04 L225.82,45.57 C225.82,52.32 221.05,60.06 213.67,60.06 C207.91,60.06 205.12,56.46 205.12,52.77 L205.12,52.77 Z M249.58,66 L258.31,66 L258.31,47.37 C258.31,44.58 258.58,41.79 259.39,39.18 C261.46,32.43 266.59,28.47 272.17,28.47 C273.61,28.47 274.78,28.74 274.78,28.74 L274.78,20.1 C274.78,20.1 273.61,19.92 272.44,19.92 C265.42,19.92 260.2,25.14 258.04,31.8 L257.86,31.8 C257.86,31.8 258.04,30.45 258.04,28.65 L258.04,25.77 C258.04,22.08 256.15,20.46 252.19,20.46 L243.91,20.46 L243.91,27.93 L247.6,27.93 C248.86,27.93 249.58,28.56 249.58,29.91 L249.58,66 Z M285.04,66 L293.77,66 L293.77,44.67 C293.77,42.42 293.95,40.35 294.58,38.55 C296.38,31.98 301.96,27.39 308.98,27.39 C316.27,27.39 317.53,32.43 317.53,38.82 L317.53,60.24 C317.53,64.29 319.24,66 323.29,66 L331.93,66 L331.93,58.53 L328.24,58.53 C326.98,58.53 326.26,57.9 326.26,56.55 L326.26,36.84 C326.26,25.23 321.4,19.38 310.6,19.38 C300.7,19.38 295.3,25.86 293.5,29.82 L293.32,29.82 C293.32,29.82 293.5,28.65 293.5,27.21 L293.5,25.5 C293.5,22.17 291.61,20.46 287.74,20.46 L279.37,20.46 L279.37,27.93 L283.06,27.93 C284.32,27.93 285.04,28.56 285.04,29.91 L285.04,66 Z M336.97,43.23 C336.97,56.73 346.78,67.08 361.18,67.08 C371.98,67.08 378.73,60.42 378.73,60.42 L374.95,54.21 C374.95,54.21 369.46,59.52 361.63,59.52 C353.53,59.52 346.51,54.03 345.97,44.31 L379.18,44.31 C379.18,44.31 379.45,41.88 379.45,40.71 C379.45,28.92 372.61,19.38 359.83,19.38 C346.87,19.38 336.97,28.74 336.97,43.23 L336.97,43.23 Z M346.33,37.92 C347.68,30.36 353.08,26.31 359.74,26.31 C365.41,26.31 370.18,30.36 370.45,37.92 L346.33,37.92 Z M390.88,60.24 C390.88,64.29 392.59,66 396.64,66 L405.28,66 L405.28,58.53 L401.59,58.53 C400.33,58.53 399.61,57.9 399.61,56.55 L399.61,8.22 C399.61,4.17 397.9,2.46 393.85,2.46 L385.21,2.46 L385.21,9.93 L388.9,9.93 C390.16,9.93 390.88,10.56 390.88,11.91 L390.88,60.24 Z M415.81,11.55 L423.64,11.55 L423.64,2.46 L415.81,2.46 L415.81,11.55 Z M415.63,60.24 C415.63,64.29 417.34,66 421.39,66 L429.94,66 L429.94,58.53 L426.25,58.53 C424.99,58.53 424.27,57.9 424.27,56.55 L424.27,26.22 C424.27,22.17 422.56,20.46 418.51,20.46 L409.96,20.46 L409.96,27.93 L413.65,27.93 C414.91,27.93 415.63,28.56 415.63,29.91 L415.63,60.24 Z M435.61,53.22 C435.61,62.31 443.26,67.08 451.09,67.08 C461.98,67.08 465.58,58.08 465.58,58.08 L465.76,58.08 C465.76,58.08 465.58,59.25 465.58,60.78 C465.58,64.02 467.2,66 471.25,66 L479.44,66 L479.44,58.53 L475.75,58.53 C474.49,58.53 473.77,57.9 473.77,56.55 L473.77,37.2 C473.77,27.12 469.81,19.38 455.05,19.38 C450.64,19.38 439.3,20.46 439.3,27.93 L439.3,32.43 L447.49,32.43 L447.49,29.82 C447.49,26.85 452.8,26.31 454.96,26.31 C462.07,26.31 465.04,29.19 465.04,37.2 L465.04,37.65 L463.06,37.65 C455.41,37.65 435.61,38.55 435.61,53.22 L435.61,53.22 Z M444.43,52.77 C444.43,44.4 456.31,44.04 462.88,44.04 L465.13,44.04 L465.13,45.57 C465.13,52.32 460.36,60.06 452.98,60.06 C447.22,60.06 444.43,56.46 444.43,52.77 L444.43,52.77 Z M488.89,66 L497.62,66 L497.62,44.67 C497.62,42.42 497.8,40.35 498.43,38.55 C500.23,31.98 505.81,27.39 512.83,27.39 C520.12,27.39 521.38,32.43 521.38,38.82 L521.38,60.24 C521.38,64.29 523.09,66 527.14,66 L535.78,66 L535.78,58.53 L532.09,58.53 C530.83,58.53 530.11,57.9 530.11,56.55 L530.11,36.84 C530.11,25.23 525.25,19.38 514.45,19.38 C504.55,19.38 499.15,25.86 497.35,29.82 L497.17,29.82 C497.17,29.82 497.35,28.65 497.35,27.21 L497.35,25.5 C497.35,22.17 495.46,20.46 491.59,20.46 L483.22,20.46 L483.22,27.93 L486.91,27.93 C488.17,27.93 488.89,28.56 488.89,29.91 L488.89,66 Z" id="carnelian" fill="#91B6C9" sketch:type="MSShapeGroup"></path>
            <path d="M147.419,109.679 C147.419,114.065 150.988,116.516 154.901,116.516 C159.846,116.516 161.523,112.646 161.523,112.646 L161.609,112.646 C161.609,112.646 161.566,113.033 161.566,113.592 C161.566,114.882 162.34,116 164.361,116 L169.263,116 L169.263,111.399 L167.543,111.399 C166.941,111.399 166.597,111.055 166.597,110.453 L166.597,102.283 C166.597,97.381 164.447,93.554 157.137,93.554 C154.858,93.554 149.096,93.984 149.096,98.069 L149.096,100.391 L154.17,100.391 L154.17,99.23 C154.17,98.026 156.105,97.768 157.094,97.768 C159.889,97.768 161.136,98.929 161.136,102.068 L161.136,102.24 L160.448,102.24 C156.879,102.24 147.419,102.799 147.419,109.679 L147.419,109.679 Z M152.923,109.421 C152.923,106.368 157.438,105.981 160.276,105.981 L161.222,105.981 L161.222,106.497 C161.222,109.163 159.158,112.259 156.234,112.259 C153.998,112.259 152.923,110.883 152.923,109.421 L152.923,109.421 Z M171.4775,112.603 C171.4775,112.603 174.5735,116.516 180.5935,116.516 C185.3665,116.516 189.0215,113.936 189.0215,109.808 C189.0215,102.498 177.3685,103.186 177.3685,99.746 C177.3685,98.456 178.7015,97.768 180.6365,97.768 C181.8405,97.768 183.3885,98.284 183.3885,99.316 L183.3885,100.391 L188.2045,100.391 L188.2045,98.112 C188.2045,94.543 183.4745,93.554 180.5075,93.554 C175.9495,93.554 171.9935,95.575 171.9935,99.961 C171.9935,107.056 183.5605,107.013 183.5605,110.109 C183.5605,111.571 182.2705,112.259 180.5935,112.259 C176.8525,112.259 174.0575,109.034 174.0575,109.034 L171.4775,112.603 Z M191.924,112.603 C191.924,112.603 195.02,116.516 201.04,116.516 C205.813,116.516 209.468,113.936 209.468,109.808 C209.468,102.498 197.815,103.186 197.815,99.746 C197.815,98.456 199.148,97.768 201.083,97.768 C202.287,97.768 203.835,98.284 203.835,99.316 L203.835,100.391 L208.651,100.391 L208.651,98.112 C208.651,94.543 203.921,93.554 200.954,93.554 C196.396,93.554 192.44,95.575 192.44,99.961 C192.44,107.056 204.007,107.013 204.007,110.109 C204.007,111.571 202.717,112.259 201.04,112.259 C197.299,112.259 194.504,109.034 194.504,109.034 L191.924,112.603 Z M215.2945,90.501 L220.0245,90.501 L220.0245,85.47 L215.2945,85.47 L215.2945,90.501 Z M215.0365,113.076 C215.0365,115.14 215.8965,116 217.9175,116 L223.1205,116 L223.1205,111.399 L221.4005,111.399 C220.7985,111.399 220.4545,111.055 220.4545,110.453 L220.4545,96.994 C220.4545,94.973 219.5945,94.07 217.5735,94.07 L212.3705,94.07 L212.3705,98.714 L214.0905,98.714 C214.6925,98.714 215.0365,99.015 215.0365,99.66 L215.0365,113.076 Z M225.55,112.603 C225.55,112.603 228.646,116.516 234.666,116.516 C239.439,116.516 243.094,113.936 243.094,109.808 C243.094,102.498 231.441,103.186 231.441,99.746 C231.441,98.456 232.774,97.768 234.709,97.768 C235.913,97.768 237.461,98.284 237.461,99.316 L237.461,100.391 L242.277,100.391 L242.277,98.112 C242.277,94.543 237.547,93.554 234.58,93.554 C230.022,93.554 226.066,95.575 226.066,99.961 C226.066,107.056 237.633,107.013 237.633,110.109 C237.633,111.571 236.343,112.259 234.666,112.259 C230.925,112.259 228.13,109.034 228.13,109.034 L225.55,112.603 Z M248.5765,107.959 C248.5765,115.312 254.6395,116.215 257.6925,116.215 C258.6815,116.215 259.3695,116.086 259.3695,116.086 L259.3695,111.313 C259.3695,111.313 258.9825,111.399 258.3805,111.399 C256.8755,111.399 254.0375,110.883 254.0375,107.271 L254.0375,98.413 L259.0255,98.413 L259.0255,94.07 L254.0375,94.07 L254.0375,88.093 L248.7055,88.093 L248.7055,94.07 L245.7385,94.07 L245.7385,98.413 L248.5765,98.413 L248.5765,107.959 Z M262.186,105.035 C262.186,111.27 266.701,116.516 273.968,116.516 C279.429,116.516 282.783,113.205 282.783,113.205 L280.504,109.421 C280.504,109.421 277.881,111.872 274.355,111.872 C271.044,111.872 268.206,109.851 267.776,105.981 L282.912,105.981 C282.912,105.981 283.041,104.605 283.041,103.96 C283.041,98.155 279.601,93.554 273.323,93.554 C266.744,93.554 262.186,98.284 262.186,105.035 L262.186,105.035 Z M267.948,102.197 C268.55,99.445 270.528,97.768 273.323,97.768 C275.559,97.768 277.365,99.574 277.451,102.197 L267.948,102.197 Z M286.4595,105.035 C286.4595,111.829 290.2865,116.516 296.2205,116.516 C301.2515,116.516 303.0575,112.947 303.0575,112.947 L303.1435,112.947 L303.1435,113.764 C303.1435,115.054 303.8745,116 305.8525,116 L310.8835,116 L310.8835,111.399 L309.2065,111.399 C308.6045,111.399 308.2605,111.055 308.2605,110.453 L308.2605,88.394 C308.2605,86.373 307.3575,85.47 305.3365,85.47 L300.1335,85.47 L300.1335,90.114 L301.8535,90.114 C302.4555,90.114 302.7995,90.415 302.7995,91.06 L302.7995,94.93 C302.7995,95.661 302.8425,96.22 302.8425,96.22 L302.7565,96.22 C302.7565,96.22 301.2085,93.554 296.4355,93.554 C290.6305,93.554 286.4595,98.069 286.4595,105.035 L286.4595,105.035 Z M297.4245,111.915 C294.1995,111.915 292.0065,109.206 292.0065,105.035 C292.0065,100.692 294.5005,98.241 297.5105,98.241 C301.1655,98.241 302.9285,101.595 302.9285,104.992 C302.9285,109.851 300.2625,111.915 297.4245,111.915 L297.4245,111.915 Z M327.3095,113.076 C327.3095,115.14 328.1695,116 330.2335,116 L335.3935,116 L335.3935,111.399 L333.7165,111.399 C333.1145,111.399 332.7705,111.055 332.7705,110.453 L332.7705,88.394 C332.7705,86.373 331.8675,85.47 329.8465,85.47 L324.6435,85.47 L324.6435,90.114 L326.3635,90.114 C326.9655,90.114 327.3095,90.415 327.3095,91.06 L327.3095,113.076 Z M340.704,90.501 L345.434,90.501 L345.434,85.47 L340.704,85.47 L340.704,90.501 Z M340.446,113.076 C340.446,115.14 341.306,116 343.327,116 L348.53,116 L348.53,111.399 L346.81,111.399 C346.208,111.399 345.864,111.055 345.864,110.453 L345.864,96.994 C345.864,94.973 345.004,94.07 342.983,94.07 L337.78,94.07 L337.78,98.714 L339.5,98.714 C340.102,98.714 340.446,99.015 340.446,99.66 L340.446,113.076 Z M358.1405,116 L364.6335,116 L370.9115,99.488 C371.1265,98.929 371.5135,98.714 372.1155,98.714 L372.6315,98.714 L372.6315,94.07 L369.7075,94.07 C367.9445,94.07 367.0415,94.629 366.4825,96.134 L362.3545,107.658 C361.9245,108.948 361.5805,110.797 361.5805,110.797 L361.4945,110.797 C361.4945,110.797 361.1505,108.948 360.6775,107.658 L356.5495,96.134 C355.9905,94.629 355.1305,94.07 353.3245,94.07 L350.1855,94.07 L350.1855,98.714 L350.6585,98.714 C351.2605,98.714 351.6475,98.929 351.8625,99.488 L358.1405,116 Z M377.426,90.501 L382.156,90.501 L382.156,85.47 L377.426,85.47 L377.426,90.501 Z M377.168,113.076 C377.168,115.14 378.028,116 380.049,116 L385.252,116 L385.252,111.399 L383.532,111.399 C382.93,111.399 382.586,111.055 382.586,110.453 L382.586,96.994 C382.586,94.973 381.726,94.07 379.705,94.07 L374.502,94.07 L374.502,98.714 L376.222,98.714 C376.824,98.714 377.168,99.015 377.168,99.66 L377.168,113.076 Z M390.1755,116 L395.5935,116 L395.5935,105.938 C395.5935,104.906 395.7225,103.917 396.0235,103.014 C396.7975,100.391 398.9905,98.542 401.9145,98.542 C404.6665,98.542 405.3545,100.348 405.3545,103.014 L405.3545,113.076 C405.3545,115.14 406.2145,116 408.2785,116 L413.4815,116 L413.4815,111.399 L411.7615,111.399 C411.1595,111.399 410.8155,111.055 410.8155,110.453 L410.8155,101.896 C410.8155,96.091 408.0205,93.554 403.1615,93.554 C398.7325,93.554 396.3675,96.263 395.4215,98.112 L395.3355,98.112 C395.3355,98.112 395.4215,97.639 395.4215,97.166 L395.4215,96.521 C395.4215,94.973 394.4755,94.07 392.5405,94.07 L387.5095,94.07 L387.5095,98.714 L389.2295,98.714 C389.8315,98.714 390.1755,99.015 390.1755,99.66 L390.1755,116 Z M415.954,104.476 C415.954,110.496 419.523,115.57 425.801,115.57 C428.725,115.57 430.617,114.581 431.907,112.732 L431.993,112.732 C431.993,112.732 431.95,113.377 431.95,113.893 L431.95,114.925 C431.95,118.881 429.069,120.3 425.758,120.3 C422.404,120.3 419.695,118.838 419.695,118.838 L418.018,123.138 C420.125,124.256 423.049,125.03 425.801,125.03 C431.52,125.03 437.368,122.192 437.368,114.667 L437.368,99.574 C437.368,99.015 437.755,98.714 438.314,98.714 L439.991,98.714 L439.991,94.07 L434.917,94.07 C433.197,94.07 432.509,95.102 432.509,96.091 L432.509,96.65 L432.423,96.65 C432.423,96.65 430.746,93.554 425.672,93.554 C419.351,93.554 415.954,98.456 415.954,104.476 L415.954,104.476 Z M426.962,110.969 C423.436,110.969 421.501,108.131 421.501,104.304 C421.501,100.606 423.307,98.198 426.618,98.198 C429.585,98.198 432.079,99.531 432.079,104.519 C432.079,109.464 429.585,110.969 426.962,110.969 L426.962,110.969 Z" id="assisted-living" fill="#FFCF01" sketch:type="MSShapeGroup"></path>
        </g>
    </g>
</svg>